<svg width="16" height="14" viewBox="0 0 16 14" fill="none" xmlns="http://www.w3.org/2000/svg">
<path d="M13.8941 2.07309C13.5536 1.73242 13.1493 1.46218 12.7043 1.27781C12.2593 1.09343 11.7824 0.998535 11.3007 0.998535C10.8191 0.998535 10.3421 1.09343 9.89716 1.27781C9.45219 1.46218 9.0479 1.73242 8.7074 2.07309L8.00073 2.77975L7.29406 2.07309C6.60627 1.38529 5.67342 0.998892 4.70073 0.998892C3.72804 0.998892 2.79519 1.38529 2.1074 2.07309C1.4196 2.76088 1.0332 3.69373 1.0332 4.66642C1.0332 5.63911 1.4196 6.57196 2.1074 7.25975L2.81406 7.96642L8.00073 13.1531L13.1874 7.96642L13.8941 7.25975C14.2347 6.91925 14.505 6.51496 14.6893 6.06999C14.8737 5.62502 14.9686 5.14808 14.9686 4.66642C14.9686 4.18476 14.8737 3.70782 14.6893 3.26285C14.505 2.81788 14.2347 2.41359 13.8941 2.07309V2.07309Z" stroke="white" stroke-width="1.5" stroke-linecap="round" stroke-linejoin="round"/>
</svg>
